<svg id="Шар_1" data-name="Шар 1" xmlns="http://www.w3.org/2000/svg" viewBox="0 0 1080 1080"><defs><style>.cls-1{stroke:#fff5dc;stroke-linecap:round;stroke-linejoin:round;stroke-width:81.8px;}.cls-2{fill:#9381ff;}</style></defs><path class="cls-1" d="M280.86,447l-6.92,17.77q-3.27,8.35-6,16.72t-4.83,16.84a175,175,0,0,0-3.4,17.9q9.68,1.56,18.55-4.83a56.27,56.27,0,0,0,15.28-17.12,81.21,81.21,0,0,0,9.41-23.9,62.92,62.92,0,0,0,1-24.68A36.41,36.41,0,0,0,294.05,426q-8-8.24-23.64-9.28-13.57-.78-24.29,4.18a59,59,0,0,0-18.68,13.58,75.87,75.87,0,0,0-13.19,20,127.63,127.63,0,0,0-8.1,23.12,60.15,60.15,0,0,1-5.48,14.5q-3.4,6.13-12.28,8a34.29,34.29,0,0,1-17.77-1q-9.39-3.13-13.44-8.88a24.91,24.91,0,0,1-4.58-12.67,43.64,43.64,0,0,1,1.57-14.63,127.76,127.76,0,0,1,5-14.76,94.06,94.06,0,0,1,16.07-25.86,106,106,0,0,1,23-19.72,118.91,118.91,0,0,1,28.35-13.07,134.35,134.35,0,0,1,31.87-5.87q27.44-1.83,46.11,5t29.65,18.94a64.11,64.11,0,0,1,14.88,28,90,90,0,0,1,2.1,32,98,98,0,0,1-8.89,31.08,86.84,86.84,0,0,1-17.76,25.34,62,62,0,0,1-15.42,11,54,54,0,0,1-17.1,5.36,48.78,48.78,0,0,1-17.37-.78,46.54,46.54,0,0,1-16.46-7.45c-.52,3.66-2,6.06-4.31,7.18a18.17,18.17,0,0,1-8,1.7q-14.64-1-21.68-8.88a36.34,36.34,0,0,1-8.88-18.81,67.52,67.52,0,0,1,.39-23.24,117.51,117.51,0,0,1,6.14-22.21,87.87,87.87,0,0,1,12.67-21.42,52.49,52.49,0,0,1,18.68-15.41,36,36,0,0,1,12.27-3.92,21.21,21.21,0,0,1,10.71,1,10.66,10.66,0,0,1,6.14,6.53Q284,439.2,280.86,447Z"/><path class="cls-1" d="M420.35,417.36a21.75,21.75,0,0,0-13.33-4,31.67,31.67,0,0,0-15.25,4,18.89,18.89,0,0,0-9.58,12.15,11.86,11.86,0,0,0,3.27,11.63c3.22,3.22,7.72,4.85,13.5,4.85a28.2,28.2,0,0,0,15.89-4.85c4.91-3.21,7.83-7.07,8.88-11.63C425.14,424.14,424,420.11,420.35,417.36Z"/><path class="cls-1" d="M875,483.09q-1.14-1.05-4.56-1c-3.45,0-6.13.47-7.95,1.46s-3.62,2.87-5.37,5.85q-2.9,5.52-6.66,11.39a42.57,42.57,0,0,1-9,10.05,21.83,21.83,0,0,1-2.34,1,44,44,0,0,0-2.86-15.95c-1.93-4.91-4-9.52-6-13.85a132.7,132.7,0,0,1-5.37-12.68,22.42,22.42,0,0,1-.94-12.38c.88-4.56-.17-7.66-3.21-9.41s-7.13-2.63-12.16-2.63c-11.33-.35-20.74,2.86-28.22,9.7a46.51,46.51,0,0,0-11.51,12.91,145.48,145.48,0,0,0-8.35,15.78c-1.17,2.33-2.28,4.55-3.22,6.6,0,.06,0,.06,0,.12a94.35,94.35,0,0,1-12.92,17.17A57.07,57.07,0,0,1,726,519.9a50.17,50.17,0,0,1-11.51,3.28,21,21,0,0,1-10.34-.65,14.18,14.18,0,0,1-7.42-6.13c-1.93-3-2.8-7.37-2.63-12.92A28.14,28.14,0,0,0,705.59,507a44.29,44.29,0,0,0,13.85-.94,43.23,43.23,0,0,0,13.44-5.49,31.8,31.8,0,0,0,10.34-9.93,28.54,28.54,0,0,0,4.85-15.78,30.12,30.12,0,0,0-4.32-16.06c-3-4.33-7.36-7.77-13.21-10.34s-13.26-3-22.32-1.7a51,51,0,0,0-22.32,8.36,71.42,71.42,0,0,0-17,15.95,63.43,63.43,0,0,0-10.17,19.86,14.51,14.51,0,0,0-.35,1.41l0,.05c-2.28,3.92-4.74,7.83-7.43,11.75a26.42,26.42,0,0,1-13.2,10.28,8,8,0,0,1-5.61.53c-1.69-.53-2.69-2-3-4.44a66.39,66.39,0,0,1,1.58-10.29c.88-3.91,1.81-7.83,2.86-11.63s2-7.47,3-11a84,84,0,0,0,1.93-8.65c.7-3.62.58-6.66-.41-9a12.63,12.63,0,0,0-4.44-5.73,16.71,16.71,0,0,0-7.19-3,44,44,0,0,0-8.35-.76,36.43,36.43,0,0,0-9,1.29,38.56,38.56,0,0,0-10.69,4.85,58.06,58.06,0,0,0-11.51,9.81,76.13,76.13,0,0,0-11.34,16.42c2.22-8.35,4.73-16.53,7.42-24.54s5.26-15.42,7.71-22.2a30,30,0,0,0,2.11-9,13.5,13.5,0,0,0-1.46-7.48,11,11,0,0,0-5.61-4.79c-2.63-1.17-6.2-1.64-10.69-1.46a22.81,22.81,0,0,0-12.57,3.91,32.64,32.64,0,0,0-8.88,9.7,61.55,61.55,0,0,0-5.2,10.7c-1.93,4.67-3.85,9.93-5.78,15.66s-3.74,11.8-5.49,18.17-3.16,12.27-4.33,18.17c-1.87,3.56-4,7.3-6.48,11.1a42.79,42.79,0,0,1-9,10.05c-1,.52-1.87.87-2.34,1A42.74,42.74,0,0,0,512,495.89c-1.93-4.91-3.91-9.52-6-13.85s-3.85-8.59-5.32-12.68a22,22,0,0,1-.93-12.38c.88-4.56-.23-7.66-3.27-9.41s-7.07-2.63-12.16-2.63c-11.27-.35-20.68,2.86-28.16,9.7a45.59,45.59,0,0,0-11.51,12.91,145.48,145.48,0,0,0-8.35,15.78c-1.58,3.15-3,6-4.21,8.64a3.06,3.06,0,0,0-.23.59c-.82,1.4-1.64,2.8-2.52,4.26a63.13,63.13,0,0,1-5.08,7.42c-.88,1.06-2,2.34-3.51,3.92a30.69,30.69,0,0,1-5,4.21,23.94,23.94,0,0,1-5.49,2.68,5.91,5.91,0,0,1-5.09-.35,4.09,4.09,0,0,1-2.74-4.2,27.58,27.58,0,0,1,.64-5.2c.53-3,1.23-6.2,2.1-9.7s1.76-6.84,2.63-10.17,1.7-6.43,2.46-9.41,1.34-5.37,1.69-7.3c.88-4.85.12-9.12-2.34-12.68S402.7,450.78,396,451a22.79,22.79,0,0,0-12.62,4,31.83,31.83,0,0,0-9.06,9.82,72.36,72.36,0,0,0-5.49,11.62,125.91,125.91,0,0,0-4.44,14.38,100,100,0,0,0-2.45,14.6,53.58,53.58,0,0,0,.11,12.68c1.4,9.23,4.91,15.37,10.46,18.41s12.62,4.15,21.15,3.27a60.52,60.52,0,0,0,35.82-16.48,90.18,90.18,0,0,0,11.33-13.44,109.93,109.93,0,0,0,6.26-9.81,10.33,10.33,0,0,0,.87-1.58c.41-.82.82-1.58,1.23-2.34.64-1.05,1.17-2,1.69-3.09,1.58-3,3.16-6,4.85-8.89a38.2,38.2,0,0,1,5.61-7.82A42.22,42.22,0,0,0,465,487.65c1.87,4.09,3.92,8.24,6,12.39s3.92,8.12,5.5,11.8,2.39,6.6,2.39,8.88-.76,3.45-2.1,3.62a9.4,9.4,0,0,1-4.73-.76,19.14,19.14,0,0,1-5.09-3.15c-1.63-1.4-3.21-2.75-4.67-4.15s-3-2.69-4.44-3.8a7,7,0,0,0-4.33-1.69c-4.55,0-7.53,1.75-9,5.32s-.76,7.3,2.22,11.1a36.16,36.16,0,0,0,15.65,11.1,48.25,48.25,0,0,0,19.87,3q24.54-.54,40.72-12.8a71.76,71.76,0,0,0,7.48-6.54,29.21,29.21,0,0,0,5.73,11.21,18,18,0,0,0,12.39,7.07q14.1,1.05,18.28-11.51c.88-2.22,2.17-5.25,3.92-9s3.68-7.42,5.78-11.1a109.41,109.41,0,0,1,6.14-9.82c2-2.86,3.74-4.73,5.32-5.61,1.22-.7,1.87-.35,1.87.94a12.31,12.31,0,0,1-.3,3,92.48,92.48,0,0,0-1.28,11.4,58.3,58.3,0,0,0,.23,9.76,30.49,30.49,0,0,0,3.8,11.27,21.32,21.32,0,0,0,16.18,10.29,55.37,55.37,0,0,0,11.63.11A62.5,62.5,0,0,0,656,523.29c1.17-1.11,2.28-2.28,3.45-3.5a24.71,24.71,0,0,0,6.71,9.29,46.23,46.23,0,0,0,17.24,9.11,69.82,69.82,0,0,0,14.14,2.34,64.2,64.2,0,0,0,14.32-.53,77.19,77.19,0,0,0,35-13.55q13.77-9.56,23.84-25.89a3.24,3.24,0,0,0,.94-1.05c.52-1.17,1.11-2.34,1.69-3.39s1.17-2,1.69-3.09c1.58-3,3.22-6,4.85-8.89a38.2,38.2,0,0,1,5.61-7.82,42.22,42.22,0,0,0,3.68,11.33c1.93,4.09,3.92,8.24,6,12.39s3.92,8.12,5.44,11.8,2.39,6.6,2.39,8.88-.7,3.45-2.1,3.62a9.4,9.4,0,0,1-4.73-.76,20.13,20.13,0,0,1-5.09-3.15c-1.63-1.4-3.21-2.75-4.67-4.15s-3-2.69-4.44-3.8a6.88,6.88,0,0,0-4.33-1.69c-4.49,0-7.53,1.75-9,5.32s-.76,7.3,2.22,11.1a36.13,36.13,0,0,0,15.66,11.1,48.33,48.33,0,0,0,19.86,3q24.54-.54,40.73-12.8c10.8-8.18,19.51-19.46,26.11-33.71.7-1.58,1.35-3.16,2-4.68a12.63,12.63,0,0,0,.93-4.2A3.55,3.55,0,0,0,875,483.09Zm-176.16,1.17a58.62,58.62,0,0,1,6.36-11,38,38,0,0,1,8.24-8.24A11.33,11.33,0,0,1,722.6,463c1.69.53,2,2.46,1,5.85a39.23,39.23,0,0,1-5.79,11,45.88,45.88,0,0,1-10.16,10.34c-4,2.92-8.12,4.27-12.27,3.92A47.38,47.38,0,0,1,698.82,484.26Z"/><path class="cls-1" d="M447.11,500a3.79,3.79,0,0,0,.41-.53c.17-.35.29-.7.46-1.05A10.33,10.33,0,0,1,447.11,500Z"/><path class="cls-1" d="M926.33,638.51q-1.14-1.05-4.56-1c-3.5,0-6.13.46-7.94,1.4s-3.62,2.92-5.38,5.9c-1.93,3.62-4.15,7.42-6.66,11.34a42.62,42.62,0,0,1-9,10.1c-1,.47-1.87.82-2.33,1a42.66,42.66,0,0,0-2.93-15.89c-1.86-4.91-3.91-9.53-6-13.85a132.7,132.7,0,0,1-5.37-12.68,22,22,0,0,1-.94-12.39c.88-4.56-.23-7.71-3.27-9.41s-7.07-2.62-12.15-2.62q-16.92-.52-28.16,9.64a47.16,47.16,0,0,0-11.51,13,136.43,136.43,0,0,0-8.36,15.77c-1.52,3-2.86,5.79-4,8.3l-.18.35c-.93,1.7-1.92,3.39-2.86,5.08a53.38,53.38,0,0,1-5,7.43,50.41,50.41,0,0,1-8.77,8.35c-3.39,2.63-6.72,3.91-10,3.91,6.84-9.23,10.69-18.34,11.63-27.4s-.53-17-4.56-23.78-10.22-12-18.7-15.54-18.63-4.5-30.67-2.75a51.18,51.18,0,0,0-22.09,8.36,71.14,71.14,0,0,0-16.94,16,64.4,64.4,0,0,0-10,19.11s-.06,0-.06,0c-1.11,2-2.28,4-3.5,6a61,61,0,0,1-5.09,7.48c-.87,1.05-2,2.34-3.5,3.92a28,28,0,0,1-5,4.14,22.74,22.74,0,0,1-5.49,2.75,6,6,0,0,1-5.09-.35,4.11,4.11,0,0,1-2.74-4.21,27.06,27.06,0,0,1,.64-5.2c.53-3,1.23-6.19,2.1-9.7s1.7-6.89,2.57-10.16,1.7-6.43,2.52-9.41,1.34-5.38,1.69-7.3a16.59,16.59,0,0,0-2.34-12.68c-2.45-3.57-7-5.26-13.61-5.09a23,23,0,0,0-12.68,4,32.47,32.47,0,0,0-9,9.81,68.45,68.45,0,0,0-5.49,11.63,113.21,113.21,0,0,0-4,12.68c-.06.06-.12.17-.18.23A124.35,124.35,0,0,1,612.86,657a58.48,58.48,0,0,1-23.49,18.52A44.45,44.45,0,0,1,579,678.82a22.06,22.06,0,0,1-9.23,0,12.78,12.78,0,0,1-6.95-3.73,19.67,19.67,0,0,1-5.49-14.67,48.45,48.45,0,0,1,2.92-15.66,70.61,70.61,0,0,1,3.91-8.35,46.84,46.84,0,0,1,6.14-9.18,37.79,37.79,0,0,1,7.53-6.89,10.93,10.93,0,0,1,8.24-2c1.4.35,1.87,1.52,1.46,3.39a24.39,24.39,0,0,1-3.15,6.84,73.82,73.82,0,0,1-6.25,8.23,49.06,49.06,0,0,1-8.24,7.43,6.09,6.09,0,0,0-2.63,4,6.74,6.74,0,0,0,.93,4.32,12.2,12.2,0,0,0,3.39,3.8,14.59,14.59,0,0,0,5.09,2.45,29.18,29.18,0,0,0,11.91.18,27.39,27.39,0,0,0,10.81-4.85,26.75,26.75,0,0,0,8.48-9.82,31.63,31.63,0,0,0,3.56-12.15,29.3,29.3,0,0,0-1.58-12.27,25.36,25.36,0,0,0-7-10.46,31.63,31.63,0,0,0-12.62-6.66c-5.26-1.46-11.45-1.69-18.58-.64a51.28,51.28,0,0,0-22.32,8.35,71.63,71.63,0,0,0-17,16,62.74,62.74,0,0,0-10.17,19.87c-.23.82-.47,1.69-.64,2.51-.65,1.11-1.29,2.22-2,3.33a59.81,59.81,0,0,1-5.08,7.48c-.88,1.05-2,2.34-3.51,3.92a25.91,25.91,0,0,1-5,4.14,21.93,21.93,0,0,1-5.5,2.75,5.93,5.93,0,0,1-5.08-.35,4.12,4.12,0,0,1-2.75-4.21,27,27,0,0,1,.65-5.2c.52-3,1.22-6.19,2.1-9.7s1.75-6.89,2.63-10.16,1.69-6.43,2.45-9.41,1.35-5.38,1.7-7.3c.87-4.91.11-9.12-2.34-12.68s-6.95-5.26-13.61-5.09a22.8,22.8,0,0,0-12.62,4,31.66,31.66,0,0,0-9.06,9.81,67.69,67.69,0,0,0-5.49,11.63,126.92,126.92,0,0,0-4,12.62,1.71,1.71,0,0,0-.17.29c-1.23,2.46-2.57,4.91-4,7.42a69.12,69.12,0,0,1-5.14,7.48c-.82,1.05-2.05,2.34-3.51,3.92a26,26,0,0,1-5,4.14,20.77,20.77,0,0,1-5.49,2.75,5.93,5.93,0,0,1-5.08-.35,4.18,4.18,0,0,1-2.75-4.21,32.83,32.83,0,0,1,.64-5.2c.71-4.91,1.82-10.4,3.28-16.47S431,632,432.79,625.83s3.56-12.27,5.49-18.29,3.74-11.39,5.49-16.07a34,34,0,0,0,2.22-9,12.44,12.44,0,0,0-1.46-7.48,11.67,11.67,0,0,0-5.73-4.79c-2.63-1.17-6.19-1.64-10.75-1.46a22.5,22.5,0,0,0-12.5,3.91,31.23,31.23,0,0,0-8.88,9.64,74,74,0,0,0-6.14,12.8c-2.16,5.61-4.38,11.86-6.54,18.81s-4.15,14.14-5.9,21.44c-.88,3.69-1.58,7.19-2.28,10.58V646a100.22,100.22,0,0,1-12.56,16.65A58.43,58.43,0,0,1,355,675.32a53.9,53.9,0,0,1-11.51,3.27,21.46,21.46,0,0,1-10.34-.64,14.17,14.17,0,0,1-7.42-6.14q-2.9-4.54-2.63-13a27,27,0,0,0,11.51,3.57,44.85,44.85,0,0,0,13.85-.94A43.67,43.67,0,0,0,361.85,656a32.36,32.36,0,0,0,10.35-9.93A28.61,28.61,0,0,0,377,630.27a26.28,26.28,0,0,0-17.47-26.41c-5.85-2.51-13.27-3.1-22.32-1.69a51.24,51.24,0,0,0-22.38,8.35,72.75,72.75,0,0,0-16.95,16,64.36,64.36,0,0,0-10.22,19.87A22.2,22.2,0,0,0,287,649c-2,3.44-4.21,7-6.72,10.51a27.67,27.67,0,0,1-13.32,10.29,8,8,0,0,1-5.61.52c-1.7-.52-2.69-2-3-4.44a118,118,0,0,1,2.92-17.53q2.28-10.15,5.61-20.85c2.16-7.13,4.38-14.09,6.66-20.81s4.27-12.38,6-17.06a36.93,36.93,0,0,0,2.22-9,12.77,12.77,0,0,0-1.34-7.42,11.1,11.1,0,0,0-5.73-4.85,28.2,28.2,0,0,0-10.58-1.7,22.56,22.56,0,0,0-12.79,4,33.46,33.46,0,0,0-8.88,9.82A74.29,74.29,0,0,0,237,591.18c-2,4.73-4,10.05-5.9,16a35.63,35.63,0,0,0-16.53-3.5,40.79,40.79,0,0,0-16.6,3.5,54.55,54.55,0,0,0-12.79,7.6,76.7,76.7,0,0,0-11,10.28,59.16,59.16,0,0,0-8.35,12,55,55,0,0,0-5,12.68,79.16,79.16,0,0,0-2,18,36.91,36.91,0,0,0,3.16,15,22.79,22.79,0,0,0,9.11,10.11c4.09,2.39,9.59,3.39,16.36,2.86,7.13-.53,13.21-2.51,18.17-6a45.53,45.53,0,0,0,12.63-13.61c1.75,8.06,5.43,13.5,11,16.36s12.27,3.86,20.1,3a61.68,61.68,0,0,0,26.29-9.23,72.2,72.2,0,0,0,12.8-10.93,24.2,24.2,0,0,0,6.66,9.17,45.3,45.3,0,0,0,17.24,9.18A69.8,69.8,0,0,0,326.45,696a64.53,64.53,0,0,0,14.37-.53,78.36,78.36,0,0,0,43.12-20.1,27.76,27.76,0,0,0,3.68,10.17,19.79,19.79,0,0,0,10.05,8.12q6.66,2.63,17.35,1.57a60.45,60.45,0,0,0,35.76-16.47c.7-.7,1.46-1.4,2.16-2.16,1.64,7.53,5,12.68,9.88,15.36,5.55,3,12.62,4.15,21.15,3.27a60.51,60.51,0,0,0,35.82-16.47c1.11-1.05,2.16-2.16,3.27-3.33a17.87,17.87,0,0,0,1.81,3.44,29.41,29.41,0,0,0,8.24,8.54A42.89,42.89,0,0,0,544,692.67a63.17,63.17,0,0,0,12.57,2.75,82.13,82.13,0,0,0,23.66-.76,75.06,75.06,0,0,0,22.2-7.83,82.6,82.6,0,0,0,16.54-12c1.52,8.53,4.91,14.26,10.22,17.12,5.55,3,12.62,4.15,21.15,3.27a60.29,60.29,0,0,0,35.76-16.47A43.14,43.14,0,0,0,689.7,675a21.33,21.33,0,0,0,2.74,5,33.57,33.57,0,0,0,9.53,9.06,41.52,41.52,0,0,0,12.68,5.2,74.88,74.88,0,0,0,14.6,2,65.29,65.29,0,0,0,16.48-1.58,62.57,62.57,0,0,0,15.13-5.49,46.56,46.56,0,0,0,12.27,1.57,44.67,44.67,0,0,0,13.32-2.1,53.63,53.63,0,0,0,13.62-6.54,55.44,55.44,0,0,0,12.79-12,108.13,108.13,0,0,0,9.76-14.67c.06-.05.12-.05.06-.11a1.16,1.16,0,0,0,.35-.41c.53-1.23,1.11-2.34,1.69-3.39s1.17-2.1,1.7-3.16c1.58-2.92,3.21-5.9,4.85-8.88a40.67,40.67,0,0,1,5.61-7.83,41.17,41.17,0,0,0,3.68,11.4c1.87,4.09,3.91,8.24,6,12.38s3.91,8.13,5.49,11.75,2.4,6.66,2.4,8.88-.71,3.5-2.11,3.68a9.51,9.51,0,0,1-4.73-.76,18.2,18.2,0,0,1-5.08-3.15c-1.64-1.41-3.22-2.81-4.68-4.21s-3-2.63-4.44-3.74a7,7,0,0,0-4.32-1.7c-4.56,0-7.54,1.76-9,5.32s-.76,7.3,2.22,11.1a36.08,36.08,0,0,0,15.66,11.1,49,49,0,0,0,19.86,3q24.54-.53,40.73-12.79t26.12-33.72c.7-1.57,1.34-3.15,2-4.73a11.64,11.64,0,0,0,.88-4.15A3.5,3.5,0,0,0,926.33,638.51Zm-598.54,1.17a55.33,55.33,0,0,1,6.37-11,36.5,36.5,0,0,1,8.24-8.23,11.36,11.36,0,0,1,9.17-2.11c1.7.53,2.05,2.51,1,5.9a37.62,37.62,0,0,1-5.72,11,46.11,46.11,0,0,1-10.17,10.28c-4,3-8.12,4.27-12.33,3.92A49.93,49.93,0,0,1,327.79,639.68ZM224.08,630.5c-.7,2.87-1.4,5.73-2.1,8.54a121.74,121.74,0,0,1-7.07,15.89,69.72,69.72,0,0,1-7.31,11.51c-2.28,2.8-4.2,4.32-5.84,4.56s-2.69-1.35-3-4.8a31.45,31.45,0,0,1,1.58-12A83.86,83.86,0,0,1,206,640c3.85-7.13,7.47-12,10.86-14.61s6.55-3.8,9.53-3.68C225.54,624.72,224.78,627.64,224.08,630.5Zm524.63,5.79a61.14,61.14,0,0,0-7.42,11.63,43.4,43.4,0,0,0-4.21,13,21.67,21.67,0,0,0,1.81,12.79c-2.92,3.51-5.66,5.61-8.18,6.43s-4.67-.59-6.42-4.09a18.73,18.73,0,0,1-1.41-10.4,53.14,53.14,0,0,1,3-12.56,85.62,85.62,0,0,1,5.9-12.92,82.22,82.22,0,0,1,7.31-11.27,40.36,40.36,0,0,1,7.54-7.66c2.57-1.93,4.67-2.74,6.42-2.39a4.63,4.63,0,0,1,3.39,3,13.14,13.14,0,0,1,.76,6.13A42.59,42.59,0,0,0,748.71,636.29Z"/><path class="cls-1" d="M510.61,572.78a21.7,21.7,0,0,0-13.32-4,31.67,31.67,0,0,0-15.25,4,18.72,18.72,0,0,0-9.58,12.15,11.87,11.87,0,0,0,3.27,11.63c3.21,3.21,7.71,4.85,13.5,4.85a28.3,28.3,0,0,0,15.89-4.85c4.91-3.22,7.83-7.07,8.88-11.63C515.4,579.56,514.29,575.47,510.61,572.78Z"/><path class="cls-1" d="M677,572.78a22,22,0,0,0-13.32-4,31.86,31.86,0,0,0-15.31,4,18.68,18.68,0,0,0-9.53,12.15,11.72,11.72,0,0,0,3.28,11.63c3.21,3.21,7.71,4.85,13.43,4.85a28.3,28.3,0,0,0,15.95-4.85c4.85-3.22,7.83-7.07,8.89-11.63C681.81,579.56,680.7,575.47,677,572.78Z"/><path class="cls-2" d="M280.86,447l-6.92,17.77q-3.27,8.35-6,16.72t-4.83,16.84q-1.83,7.42-3.05,15.52a2.3,2.3,0,0,0,2,2.64q8.39.53,16.17-5.09a56.27,56.27,0,0,0,15.28-17.12,81.21,81.21,0,0,0,9.41-23.9,62.92,62.92,0,0,0,1-24.68A36.41,36.41,0,0,0,294.05,426q-8-8.24-23.64-9.28-13.57-.78-24.29,4.18a59,59,0,0,0-18.68,13.58,75.87,75.87,0,0,0-13.19,20,127.63,127.63,0,0,0-8.1,23.12,60.15,60.15,0,0,1-5.48,14.5q-3.4,6.13-12.28,8a34.29,34.29,0,0,1-17.77-1q-9.39-3.13-13.44-8.88a24.91,24.91,0,0,1-4.58-12.67,43.64,43.64,0,0,1,1.57-14.63,127.76,127.76,0,0,1,5-14.76,94.06,94.06,0,0,1,16.07-25.86,106,106,0,0,1,23-19.72,118.91,118.91,0,0,1,28.35-13.07,134.35,134.35,0,0,1,31.87-5.87q27.44-1.83,46.11,5t29.65,18.94a64.11,64.11,0,0,1,14.88,28,90,90,0,0,1,2.1,32,98,98,0,0,1-8.89,31.08,86.84,86.84,0,0,1-17.76,25.34,62,62,0,0,1-15.42,11,54,54,0,0,1-17.1,5.36,48.78,48.78,0,0,1-17.37-.78,46.54,46.54,0,0,1-16.46-7.45c-.52,3.66-2,6.06-4.31,7.18a18.17,18.17,0,0,1-8,1.7q-14.64-1-21.68-8.88a36.34,36.34,0,0,1-8.88-18.81,67.52,67.52,0,0,1,.39-23.24,117.51,117.51,0,0,1,6.14-22.21,87.87,87.87,0,0,1,12.67-21.42,52.49,52.49,0,0,1,18.68-15.41,36,36,0,0,1,12.27-3.92,21.21,21.21,0,0,1,10.71,1,10.66,10.66,0,0,1,6.14,6.53Q284,439.2,280.86,447Z"/><path class="cls-2" d="M420.35,417.36a21.75,21.75,0,0,0-13.33-4,31.67,31.67,0,0,0-15.25,4,18.89,18.89,0,0,0-9.58,12.15,11.86,11.86,0,0,0,3.27,11.63c3.22,3.22,7.72,4.85,13.5,4.85a28.2,28.2,0,0,0,15.89-4.85c4.91-3.21,7.83-7.07,8.88-11.63C425.14,424.14,424,420.11,420.35,417.36Z"/><path class="cls-2" d="M875,483.09q-1.14-1.05-4.56-1c-3.45,0-6.13.47-7.95,1.46s-3.62,2.87-5.37,5.85q-2.9,5.52-6.66,11.39a42.57,42.57,0,0,1-9,10.05,21.83,21.83,0,0,1-2.34,1,44,44,0,0,0-2.86-15.95c-1.93-4.91-4-9.52-6-13.85a132.7,132.7,0,0,1-5.37-12.68,22.42,22.42,0,0,1-.94-12.38c.88-4.56-.17-7.66-3.21-9.41s-7.13-2.63-12.16-2.63c-11.33-.35-20.74,2.86-28.22,9.7a46.51,46.51,0,0,0-11.51,12.91,145.48,145.48,0,0,0-8.35,15.78c-1.16,2.32-2.26,4.52-3.19,6.56l-.13.23a93.59,93.59,0,0,1-12.87,17.1A57.07,57.07,0,0,1,726,519.9a50.17,50.17,0,0,1-11.51,3.28,21,21,0,0,1-10.34-.65,14.18,14.18,0,0,1-7.42-6.13,14.55,14.55,0,0,1-1.48-3.18,5.34,5.34,0,0,1,6.3-6.88,35.86,35.86,0,0,0,4.06.65,44.29,44.29,0,0,0,13.85-.94,43.23,43.23,0,0,0,13.44-5.49,31.8,31.8,0,0,0,10.34-9.93,28.54,28.54,0,0,0,4.85-15.78,30.12,30.12,0,0,0-4.32-16.06c-3-4.33-7.36-7.77-13.21-10.34s-13.26-3-22.32-1.7a51,51,0,0,0-22.32,8.36,71.42,71.42,0,0,0-17,15.95,63.43,63.43,0,0,0-10.17,19.86,14.51,14.51,0,0,0-.35,1.41l0,.05c-2.28,3.92-4.74,7.83-7.43,11.75a26.42,26.42,0,0,1-13.2,10.28,8,8,0,0,1-5.61.53c-1.69-.53-2.69-2-3-4.44a66.39,66.39,0,0,1,1.58-10.29c.88-3.91,1.81-7.83,2.86-11.63s2-7.47,3-11a84,84,0,0,0,1.93-8.65c.7-3.62.58-6.66-.41-9a12.63,12.63,0,0,0-4.44-5.73,16.71,16.71,0,0,0-7.19-3,44,44,0,0,0-8.35-.76,36.43,36.43,0,0,0-9,1.29,38.56,38.56,0,0,0-10.69,4.85,58.06,58.06,0,0,0-11.51,9.81,76.13,76.13,0,0,0-11.34,16.42c2.22-8.35,4.73-16.53,7.42-24.54s5.26-15.42,7.71-22.2a30,30,0,0,0,2.11-9,13.5,13.5,0,0,0-1.46-7.48,11,11,0,0,0-5.61-4.79c-2.63-1.17-6.2-1.64-10.69-1.46a22.81,22.81,0,0,0-12.57,3.91,32.64,32.64,0,0,0-8.88,9.7,61.55,61.55,0,0,0-5.2,10.7c-1.93,4.67-3.85,9.93-5.78,15.66s-3.74,11.8-5.49,18.17c-1.61,6.14-3.11,12-4.27,17.85a2.14,2.14,0,0,1-.21.6c-1.83,3.48-3.94,7.12-6.33,10.82a42.79,42.79,0,0,1-9,10.05c-1,.52-1.87.87-2.34,1A42.74,42.74,0,0,0,512,495.89c-1.93-4.91-3.91-9.52-6-13.85s-3.85-8.59-5.32-12.68a22,22,0,0,1-.93-12.38c.88-4.56-.23-7.66-3.27-9.41s-7.07-2.63-12.16-2.63c-11.27-.35-20.68,2.86-28.16,9.7a45.59,45.59,0,0,0-11.51,12.91,145.48,145.48,0,0,0-8.35,15.78c-1.58,3.15-3,6-4.21,8.64a3.06,3.06,0,0,0-.23.59c-.82,1.4-1.64,2.8-2.52,4.26a63.13,63.13,0,0,1-5.08,7.42c-.88,1.06-2,2.34-3.51,3.92a30.69,30.69,0,0,1-5,4.21,23.94,23.94,0,0,1-5.49,2.68,5.91,5.91,0,0,1-5.09-.35,4.09,4.09,0,0,1-2.74-4.2,27.58,27.58,0,0,1,.64-5.2c.53-3,1.23-6.2,2.1-9.7s1.76-6.84,2.63-10.17,1.7-6.43,2.46-9.41,1.34-5.37,1.69-7.3c.88-4.85.12-9.12-2.34-12.68S402.7,450.78,396,451a22.79,22.79,0,0,0-12.62,4,31.83,31.83,0,0,0-9.06,9.82,72.36,72.36,0,0,0-5.49,11.62,125.91,125.91,0,0,0-4.44,14.38,100,100,0,0,0-2.45,14.6,53.58,53.58,0,0,0,.11,12.68c1.4,9.23,4.91,15.37,10.46,18.41s12.62,4.15,21.15,3.27a60.52,60.52,0,0,0,35.82-16.48,90.18,90.18,0,0,0,11.33-13.44,109.93,109.93,0,0,0,6.26-9.81,10.33,10.33,0,0,0,.87-1.58c.41-.82.82-1.58,1.23-2.34.64-1.05,1.17-2,1.69-3.09,1.58-3,3.16-6,4.85-8.89a38.2,38.2,0,0,1,5.61-7.82A42.22,42.22,0,0,0,465,487.65c1.87,4.09,3.92,8.24,6,12.39s3.92,8.12,5.5,11.8,2.39,6.6,2.39,8.88-.76,3.45-2.1,3.62a9.4,9.4,0,0,1-4.73-.76,19.14,19.14,0,0,1-5.09-3.15c-1.63-1.4-3.21-2.75-4.67-4.15s-3-2.69-4.44-3.8a7,7,0,0,0-4.33-1.69c-4.55,0-7.53,1.75-9,5.32s-.76,7.3,2.22,11.1a36.16,36.16,0,0,0,15.65,11.1,48.25,48.25,0,0,0,19.87,3q24.54-.54,40.72-12.8a71.76,71.76,0,0,0,7.48-6.54,29.21,29.21,0,0,0,5.73,11.21,18,18,0,0,0,12.39,7.07q14.1,1.05,18.28-11.51c.88-2.22,2.17-5.25,3.92-9s3.68-7.42,5.78-11.1a109.41,109.41,0,0,1,6.14-9.82c2-2.86,3.74-4.73,5.32-5.61,1.22-.7,1.87-.35,1.87.94a12.31,12.31,0,0,1-.3,3,92.48,92.48,0,0,0-1.28,11.4,58.3,58.3,0,0,0,.23,9.76,30.49,30.49,0,0,0,3.8,11.27,21.32,21.32,0,0,0,16.18,10.29,55.37,55.37,0,0,0,11.63.11A62.5,62.5,0,0,0,656,523.29c1.17-1.11,2.28-2.28,3.45-3.5a24.71,24.71,0,0,0,6.71,9.29,46.23,46.23,0,0,0,17.24,9.11,69.82,69.82,0,0,0,14.14,2.34,64.2,64.2,0,0,0,14.32-.53,77.19,77.19,0,0,0,35-13.55q13.77-9.56,23.84-25.89a3.24,3.24,0,0,0,.94-1.05c.52-1.17,1.11-2.34,1.69-3.39s1.17-2,1.69-3.09c1.58-3,3.22-6,4.85-8.89a38.2,38.2,0,0,1,5.61-7.82,42.22,42.22,0,0,0,3.68,11.33c1.93,4.09,3.92,8.24,6,12.39s3.92,8.12,5.44,11.8,2.39,6.6,2.39,8.88-.7,3.45-2.1,3.62a9.4,9.4,0,0,1-4.73-.76,20.13,20.13,0,0,1-5.09-3.15c-1.63-1.4-3.21-2.75-4.67-4.15s-3-2.69-4.44-3.8a6.88,6.88,0,0,0-4.33-1.69c-4.49,0-7.53,1.75-9,5.32s-.76,7.3,2.22,11.1a36.13,36.13,0,0,0,15.66,11.1,48.33,48.33,0,0,0,19.86,3q24.54-.54,40.73-12.8c10.8-8.18,19.51-19.46,26.11-33.71.7-1.58,1.35-3.16,2-4.68a12.63,12.63,0,0,0,.93-4.2A3.55,3.55,0,0,0,875,483.09Zm-176.16,1.17a58.62,58.62,0,0,1,6.36-11,38,38,0,0,1,8.24-8.24A11.33,11.33,0,0,1,722.6,463c1.69.53,2,2.46,1,5.85a39.23,39.23,0,0,1-5.79,11,45.88,45.88,0,0,1-10.16,10.34c-4,2.92-8.24,3.33-12.27,3.92A47.38,47.38,0,0,1,698.82,484.26Z"/><path class="cls-2" d="M510.61,572.78a21.7,21.7,0,0,0-13.32-4,31.67,31.67,0,0,0-15.25,4,18.72,18.72,0,0,0-9.58,12.15,11.87,11.87,0,0,0,3.27,11.63c3.21,3.21,7.71,4.85,13.5,4.85a28.3,28.3,0,0,0,15.89-4.85c4.91-3.22,7.83-7.07,8.88-11.63C515.4,579.56,514.29,575.47,510.61,572.78Z"/><path class="cls-2" d="M677,572.78a22,22,0,0,0-13.32-4,31.86,31.86,0,0,0-15.31,4,18.68,18.68,0,0,0-9.53,12.15,11.72,11.72,0,0,0,3.28,11.63c3.5,3.51,8.55,5.13,15.05,4.81a28.37,28.37,0,0,0,13.18-4.08c5.53-3.35,8.9-7.45,10-12.36C681.81,579.56,680.7,575.47,677,572.78Z"/><path class="cls-2" d="M926.33,638.51q-1.14-1.05-4.56-1c-3.5,0-6.13.46-7.94,1.4s-3.62,2.92-5.38,5.9c-1.93,3.62-4.15,7.42-6.66,11.34a42.62,42.62,0,0,1-9,10.1c-1,.47-1.87.82-2.33,1a42.66,42.66,0,0,0-2.93-15.89c-1.86-4.91-3.91-9.53-6-13.85a132.7,132.7,0,0,1-5.37-12.68,22,22,0,0,1-.94-12.39c.88-4.56-.23-7.71-3.27-9.41s-7.07-2.62-12.15-2.62q-16.92-.52-28.16,9.64a47.16,47.16,0,0,0-11.51,13,136.43,136.43,0,0,0-8.36,15.77c-1.52,3-2.86,5.79-4,8.3l-.18.35c-.93,1.7-1.92,3.39-2.86,5.08a53.38,53.38,0,0,1-5,7.43,50.41,50.41,0,0,1-8.77,8.35c-3.39,2.63-6.72,3.91-10,3.91,6.84-9.23,10.69-18.34,11.63-27.4s-.53-17-4.56-23.78-10.22-12-18.7-15.54-18.63-4.5-30.67-2.75a51.18,51.18,0,0,0-22.09,8.36,71.14,71.14,0,0,0-16.94,16,64.4,64.4,0,0,0-10,19.11s-.06,0-.06,0c-1.11,2-2.28,4-3.5,6a61,61,0,0,1-5.09,7.48c-.87,1.05-2,2.34-3.5,3.92a28,28,0,0,1-5,4.14,22.74,22.74,0,0,1-5.49,2.75,6,6,0,0,1-5.09-.35,4.11,4.11,0,0,1-2.74-4.21,27.06,27.06,0,0,1,.64-5.2c.53-3,1.23-6.19,2.1-9.7s1.7-6.89,2.57-10.16,1.7-6.43,2.52-9.41,1.34-5.38,1.69-7.3a16.59,16.59,0,0,0-2.34-12.68c-2.45-3.57-7-5.26-13.61-5.09a23,23,0,0,0-12.68,4,32.47,32.47,0,0,0-9,9.81,68.45,68.45,0,0,0-5.49,11.63,113.21,113.21,0,0,0-4,12.68c-.06.06-.12.17-.18.23A124.35,124.35,0,0,1,612.86,657a58.48,58.48,0,0,1-23.49,18.52A44.45,44.45,0,0,1,579,678.82a22.06,22.06,0,0,1-9.23,0,12.78,12.78,0,0,1-6.95-3.73,19.67,19.67,0,0,1-5.49-14.67,48.45,48.45,0,0,1,2.92-15.66,66.31,66.31,0,0,1,3.73-8,49.63,49.63,0,0,1,3.79-6.3,41.32,41.32,0,0,1,10.06-10.12,10.93,10.93,0,0,1,8.24-2c1.4.35,1.87,1.52,1.46,3.39a24.39,24.39,0,0,1-3.15,6.84,73.82,73.82,0,0,1-6.25,8.23,49.06,49.06,0,0,1-8.24,7.43,6.09,6.09,0,0,0-2.63,4,6.74,6.74,0,0,0,.93,4.32,12.2,12.2,0,0,0,3.39,3.8,14.59,14.59,0,0,0,5.09,2.45,29.18,29.18,0,0,0,11.91.18,27.39,27.39,0,0,0,10.81-4.85,26.75,26.75,0,0,0,8.48-9.82,31.63,31.63,0,0,0,3.56-12.15,29.3,29.3,0,0,0-1.58-12.27,25.36,25.36,0,0,0-7-10.46,31.63,31.63,0,0,0-12.62-6.66c-5.26-1.46-11.45-1.69-18.58-.64a51.28,51.28,0,0,0-22.32,8.35,71.63,71.63,0,0,0-17,16,62.74,62.74,0,0,0-10.17,19.87c-.23.82-.47,1.69-.64,2.51-.65,1.11-1.29,2.22-2,3.33a59.81,59.81,0,0,1-5.08,7.48c-.88,1.05-2,2.34-3.51,3.92a25.91,25.91,0,0,1-5,4.14,21.93,21.93,0,0,1-5.5,2.75,5.93,5.93,0,0,1-5.08-.35,4.12,4.12,0,0,1-2.75-4.21,27,27,0,0,1,.65-5.2c.52-3,1.22-6.19,2.1-9.7s1.75-6.89,2.63-10.16,1.69-6.43,2.45-9.41,1.35-5.38,1.7-7.3c.87-4.91.11-9.12-2.34-12.68s-6.95-5.26-13.61-5.09a22.8,22.8,0,0,0-12.62,4,31.66,31.66,0,0,0-9.06,9.81,67.69,67.69,0,0,0-5.49,11.63,126.92,126.92,0,0,0-4,12.62,1.71,1.71,0,0,0-.17.29c-1.23,2.46-2.57,4.91-4,7.42a69.12,69.12,0,0,1-5.14,7.48c-.82,1.05-2.05,2.34-3.51,3.92a26,26,0,0,1-5,4.14,20.77,20.77,0,0,1-5.49,2.75,5.93,5.93,0,0,1-5.08-.35,4.18,4.18,0,0,1-2.75-4.21,32.83,32.83,0,0,1,.64-5.2c.71-4.91,1.82-10.4,3.28-16.47S431,632,432.79,625.83s3.56-12.27,5.49-18.29,3.74-11.39,5.49-16.07a34,34,0,0,0,2.22-9,12.44,12.44,0,0,0-1.46-7.48,11.67,11.67,0,0,0-5.73-4.79c-2.63-1.17-6.19-1.64-10.75-1.46a22.5,22.5,0,0,0-12.5,3.91,31.23,31.23,0,0,0-8.88,9.64,74,74,0,0,0-6.14,12.8c-2.16,5.61-4.38,11.86-6.54,18.81s-4.15,14.14-5.9,21.44c-.88,3.69-1.58,7.19-2.28,10.58V646a100.22,100.22,0,0,1-12.56,16.65A58.43,58.43,0,0,1,355,675.32a53.9,53.9,0,0,1-11.51,3.27,21.46,21.46,0,0,1-10.34-.64,15.09,15.09,0,0,1-8.91-9.32,5.35,5.35,0,0,1,6.32-6.87,35,35,0,0,0,4.05.65,44.85,44.85,0,0,0,13.85-.94A43.67,43.67,0,0,0,361.85,656a32.36,32.36,0,0,0,10.35-9.93A28.61,28.61,0,0,0,377,630.27a26.28,26.28,0,0,0-17.47-26.41c-5.85-2.51-13.27-3.1-22.32-1.69a51.24,51.24,0,0,0-22.38,8.35,72.75,72.75,0,0,0-16.95,16,64.36,64.36,0,0,0-10.22,19.87A22.2,22.2,0,0,0,287,649c-2,3.44-4.21,7-6.72,10.51a27.67,27.67,0,0,1-13.32,10.29,8,8,0,0,1-5.61.52c-1.7-.52-2.69-2-3-4.44a118,118,0,0,1,2.92-17.53q2.28-10.15,5.61-20.85c2.16-7.13,4.38-14.09,6.66-20.81s4.27-12.38,6-17.06a36.93,36.93,0,0,0,2.22-9,12.77,12.77,0,0,0-1.34-7.42,11.1,11.1,0,0,0-5.73-4.85,28.2,28.2,0,0,0-10.58-1.7,22.56,22.56,0,0,0-12.79,4,33.46,33.46,0,0,0-8.88,9.82A74.29,74.29,0,0,0,237,591.18c-1.72,4.1-3.44,8.64-5.12,13.61a2.25,2.25,0,0,1-3,1.36,36.2,36.2,0,0,0-14.32-2.52,40.79,40.79,0,0,0-16.6,3.5,54.55,54.55,0,0,0-12.79,7.6,76.7,76.7,0,0,0-11,10.28,59.16,59.16,0,0,0-8.35,12,55,55,0,0,0-5,12.68,79.16,79.16,0,0,0-2,18,36.91,36.91,0,0,0,3.16,15,22.79,22.79,0,0,0,9.11,10.11c4.09,2.39,9.59,3.39,16.36,2.86,7.13-.53,13.21-2.51,18.17-6a44.47,44.47,0,0,0,10.05-9.81,2.2,2.2,0,0,1,3.82.62q3,8.5,9.74,11.94c5.61,2.86,12.27,3.86,20.1,3a61.68,61.68,0,0,0,26.29-9.23,71.16,71.16,0,0,0,10.57-8.63,2.24,2.24,0,0,1,3.53.35,23.19,23.19,0,0,0,5.36,6.52,45.3,45.3,0,0,0,17.24,9.18A69.8,69.8,0,0,0,326.45,696a64.53,64.53,0,0,0,14.37-.53,78.36,78.36,0,0,0,43.12-20.1,27.76,27.76,0,0,0,3.68,10.17,19.79,19.79,0,0,0,10.05,8.12q6.66,2.63,17.35,1.57a60.45,60.45,0,0,0,35.76-16.47c.7-.7,1.46-1.4,2.16-2.16,1.64,7.53,5,12.68,9.88,15.36,5.55,3,12.62,4.15,21.15,3.27a60.51,60.51,0,0,0,35.82-16.47c1.11-1.05,2.16-2.16,3.27-3.33a17.87,17.87,0,0,0,1.81,3.44,29.41,29.41,0,0,0,8.24,8.54A42.89,42.89,0,0,0,544,692.67a63.17,63.17,0,0,0,12.57,2.75,82.13,82.13,0,0,0,23.66-.76,75.06,75.06,0,0,0,22.2-7.83,81.51,81.51,0,0,0,13.71-9.51,2.21,2.21,0,0,1,3.6,1c1.76,6.61,4.9,11.16,9.45,13.61,5.55,3,12.62,4.15,21.15,3.27a60.29,60.29,0,0,0,35.76-16.47A43.14,43.14,0,0,0,689.7,675c1.88,4.86,5.44,8.45,9.55,11.91a28.38,28.38,0,0,0,4.28,3,42.13,42.13,0,0,0,11.12,4.27,74.88,74.88,0,0,0,14.6,2,65.29,65.29,0,0,0,16.48-1.58,62.53,62.53,0,0,0,14.44-5.14,2.05,2.05,0,0,1,1.44-.16,46.85,46.85,0,0,0,11.52,1.38,44.67,44.67,0,0,0,13.32-2.1,53.63,53.63,0,0,0,13.62-6.54,55.44,55.44,0,0,0,12.79-12,108.13,108.13,0,0,0,9.76-14.67c.06-.05.12-.05.06-.11a1.16,1.16,0,0,0,.35-.41c.53-1.23,1.11-2.34,1.69-3.39s1.17-2.1,1.7-3.16c1.58-2.92,3.21-5.9,4.85-8.88a40.67,40.67,0,0,1,5.61-7.83,41.17,41.17,0,0,0,3.68,11.4c1.87,4.09,3.91,8.24,6,12.38s3.91,8.13,5.49,11.75,2.4,6.66,2.4,8.88-.71,3.5-2.11,3.68a9.51,9.51,0,0,1-4.73-.76,18.2,18.2,0,0,1-5.08-3.15c-1.64-1.41-3.22-2.81-4.68-4.21s-3-2.63-4.44-3.74a7,7,0,0,0-4.32-1.7c-4.56,0-7.54,1.76-9,5.32s-.76,7.3,2.22,11.1a36.08,36.08,0,0,0,15.66,11.1,49,49,0,0,0,19.86,3q24.54-.53,40.73-12.79t26.12-33.72c.7-1.57,1.34-3.15,2-4.73a11.64,11.64,0,0,0,.88-4.15A3.5,3.5,0,0,0,926.33,638.51Zm-598.54,1.17a55.33,55.33,0,0,1,6.37-11,36.5,36.5,0,0,1,8.24-8.23,11.36,11.36,0,0,1,9.17-2.11c1.7.53,2.05,2.51,1,5.9a37.62,37.62,0,0,1-5.72,11,46.11,46.11,0,0,1-10.17,10.28c-4,3-8.12,4.27-12.33,3.92A49.93,49.93,0,0,1,327.79,639.68ZM223.48,633l-3.24,10.57a115.38,115.38,0,0,1-5.33,11.39,69.72,69.72,0,0,1-7.31,11.51c-2.28,2.8-4.2,4.32-5.84,4.56s-2.69-1.35-3-4.8a31.45,31.45,0,0,1,1.58-12A83.86,83.86,0,0,1,206,640c3.85-7.13,7.47-12,10.86-14.61s6.55-3.8,9.53-3.68C225.29,625.58,224.35,629.33,223.48,633Zm525.23,3.32a61.14,61.14,0,0,0-7.42,11.63,43.4,43.4,0,0,0-4.21,13,21.79,21.79,0,0,0,1.25,11.51,2.27,2.27,0,0,1-.37,2.36c-2.58,2.86-5,4.62-7.25,5.35-2.57.76-4.67-.59-6.42-4.09a18.73,18.73,0,0,1-1.41-10.4,53.14,53.14,0,0,1,3-12.56,85.62,85.62,0,0,1,5.9-12.92,82.22,82.22,0,0,1,7.31-11.27,40.36,40.36,0,0,1,7.54-7.66c2.57-1.93,4.67-2.74,6.42-2.39a4.63,4.63,0,0,1,3.39,3,13.14,13.14,0,0,1,.76,6.13A42.59,42.59,0,0,0,748.71,636.29Z"/></svg>